<?xml version="1.0" encoding="utf-8"?>
<!DOCTYPE svg PUBLIC "-//W3C//DTD SVG 1.1//EN" "http://www.w3.org/Graphics/SVG/1.1/DTD/svg11.dtd">
<svg version="1.1"
	 id="Ebene_1" xmlns:cc="http://creativecommons.org/ns#" xmlns:rdf="http://www.w3.org/1999/02/22-rdf-syntax-ns#" xmlns:dc="http://purl.org/dc/elements/1.1/"
	 xmlns="http://www.w3.org/2000/svg" xmlns:xlink="http://www.w3.org/1999/xlink" x="0px" y="0px" width="32px" height="32px"
	 viewBox="0 0 32 32" enable-background="new 0 0 32 32" xml:space="preserve">
<g>
	<path fill="#FFFFFF" d="M15.821,19.24c-0.33,0-0.561,0.022-0.682,0.056v2.189c0.143,0.032,0.308,0.044,0.561,0.044
		c0.892,0,1.441-0.451,1.441-1.199C17.142,19.647,16.669,19.24,15.821,19.24z"/>
	<path fill="#FFFFFF" d="M27.896,8.455l-6.625-6.398C21.184,2.024,21.092,2.005,21,2.002H4.863c-0.053-0.005-0.11-0.005-0.164,0h0
		v0.002C4.304,2.081,3.993,2.471,4,2.879v26.244c0,0.458,0.412,0.875,0.863,0.875h22.277c0.451,0,0.863-0.417,0.863-0.875V8.838
		C27.996,8.704,27.959,8.572,27.896,8.455z M12.17,25.094c-0.517,0.176-1.496,0.418-2.475,0.418c-1.354,0-2.333-0.341-3.015-0.99
		c-0.671-0.649-1.045-1.617-1.045-2.706c0.011-2.465,1.804-3.873,4.235-3.873c0.957,0,1.694,0.188,2.057,0.353l-0.352,1.353
		c-0.407-0.187-0.902-0.318-1.716-0.318c-1.397,0-2.464,0.78-2.464,2.397c0,1.541,0.968,2.432,2.343,2.432
		c0.374,0,0.682-0.044,0.814-0.099v-1.563H9.409v-1.31h2.761V25.094z M18.121,22.035c-0.572,0.528-1.42,0.781-2.41,0.781
		c-0.22,0-0.418-0.011-0.572-0.044v2.662h-1.661v-7.316c0.517-0.088,1.243-0.153,2.266-0.153c1.034,0,1.771,0.197,2.267,0.594
		c0.484,0.374,0.792,0.99,0.792,1.716C18.803,21.001,18.572,21.628,18.121,22.035z M23.467,25.435l-0.671-1.342
		c-0.275-0.518-0.451-0.902-0.66-1.332h-0.022c-0.154,0.43-0.341,0.814-0.583,1.332l-0.605,1.342h-1.914l2.146-3.752l-2.068-3.663
		h1.926l0.648,1.354c0.221,0.451,0.386,0.813,0.562,1.231h0.021c0.177-0.473,0.319-0.803,0.507-1.231l0.627-1.354h1.914
		l-2.091,3.619l2.201,3.796H23.467z"/>
</g>
</svg>
